<?xml version="1.0" encoding="utf-8"?>
<svg xmlns="http://www.w3.org/2000/svg" viewBox="0 0 500 500">
  <path id="path0" style="fill: rgb(216, 216, 216); stroke: rgb(0, 0, 0); paint-order: fill; fill-opacity: 0;" d="M 376.937 138.264 C 376.937 138.264 367.214 333.625 365.336 356.717 C 363.458 379.809 327.012 397.384 316.45 400.947 C 311.453 408.369 217.281 415.561 215.116 407.336 C 190.772 408.125 125.091 379.642 131.098 352.948 C 122.8 353.268 37.664 289.637 31.502 270.204 C 3.756 229.576 27.794 183.495 47.775 175.155 C 68.405 165.331 118.767 164.105 114.455 166.159 L 119.295 164.142 L 119.9 136.914 C 120.072 137.673 120.324 138.418 120.652 139.148 C 121.454 141.899 123.91 144.547 127.794 147.039 C 170.898 177.413 370.135 173.388 376.937 138.264 Z M 376.407 137.16 C 376.407 153.372 319.09 166.515 248.385 166.515 C 192.797 166.515 145.484 158.391 127.794 147.039 C 124.37 144.626 121.931 141.996 120.652 139.148 C 120.46 138.491 120.363 137.828 120.363 137.16 C 120.363 120.948 177.68 107.805 248.385 107.805 C 319.09 107.805 376.407 120.948 376.407 137.16 Z M 108.847 203.656 C 89.834 173.504 38.815 191.378 42.871 223.805 C 41.326 274.098 115.932 322.68 127.28 299.547 L 122.468 223.581 C 122.468 224.434 108.847 204.306 108.847 203.656 Z"/>
  <path id="path1" style="fill: rgb(216, 216, 216); stroke: rgb(0, 0, 0); fill-opacity: 0;" d="M 129.922 134.899 C 129.012 108.038 332.142 99.824 367.095 133.565 C 381.063 141.216 321.362 163.868 257.289 159.572 C 188.814 163.509 115.65 141.409 129.922 134.899 Z"/>
</svg>