<?xml version="1.0" encoding="utf-8"?>
<svg xmlns="http://www.w3.org/2000/svg" viewBox="0 0 500 500">
  <ellipse id="path1" style="fill: rgb(216, 216, 216); stroke: rgb(0, 0, 0); fill-opacity: 0;" cx="250.904" cy="134.334" rx="119.841" ry="23.087"/>
  <path id="path0" style="fill: rgb(216, 216, 216); stroke: rgb(0, 0, 0); paint-order: fill; fill-opacity: 0;" d="M 379.652 137.178 C 379.652 137.178 369.929 332.539 368.051 355.631 C 366.173 378.723 329.727 396.298 319.165 399.861 C 314.168 407.283 219.996 414.475 217.831 406.25 C 193.487 407.039 127.806 378.556 133.813 351.862 C 125.515 352.182 40.379 288.551 34.217 269.118 C 6.471 228.49 30.509 182.409 50.49 174.069 C 71.12 164.245 121.482 163.019 117.17 165.073 L 122.01 163.056 L 122.615 135.828 C 122.787 136.587 123.039 137.332 123.367 138.062 C 124.169 140.813 126.625 143.461 130.509 145.953 C 173.613 176.327 372.85 172.302 379.652 137.178 Z M 379.122 136.074 C 379.122 152.286 321.805 165.429 251.1 165.429 C 195.512 165.429 148.199 157.305 130.509 145.953 C 127.085 143.54 124.646 140.91 123.367 138.062 C 123.175 137.405 123.078 136.742 123.078 136.074 C 123.078 119.862 180.395 106.719 251.1 106.719 C 321.805 106.719 379.122 119.862 379.122 136.074 Z M 111.562 202.57 C 92.549 172.418 41.53 190.292 45.586 222.719 C 44.041 273.012 118.647 321.594 129.995 298.461 L 125.183 222.495 C 125.183 223.348 111.562 203.22 111.562 202.57 Z"/>
</svg>