<?xml version="1.0" encoding="utf-8"?>
<svg xmlns="http://www.w3.org/2000/svg" viewBox="0 0 500 500" style="">
  <path id="path0" style="stroke: rgb(0, 0, 0); fill: rgb(200, 25, 25); fill-opacity: 0; stroke-opacity: 0;" d="M 153.251 443.038 L 157.721 449.333 L 176.27 453.11 L 233.867 459.985 L 263.182 462.276 L 289.29 458.153 L 326.733 455.673 L 346.79 449.517 L 352.319 443.363 L 345.11 345.215 L 345.855 232.658 L 359.371 169.586 L 261.254 202.459 C 261.485 201.498 147.491 163.797 146.831 166.547 C 156.272 167.576 164.943 288.726 158.548 362.857 C 156.952 381.355 159.859 378.994 158.029 395.806 C 155 423.639 156.604 443.597 153.251 443.038 Z"/>
  <path id="path1" style="stroke: rgb(0, 0, 0); paint-order: stroke markers; fill: rgb(119, 49, 207); fill-opacity: 0; stroke-opacity: 0;" d="M 146.172 166.367 L 144.709 150.916 L 147.969 138.362 L 155.121 124.447 L 206.032 69.212 C 206.032 69.212 218.151 83.555 224.581 85.965 C 239.731 91.642 253.29 91.539 253.29 91.539 C 253.29 91.539 272.073 88.554 280.466 84.148 C 292.75 77.7 296.032 70.403 295.734 70.337 C 299.799 69.321 350.59 128.578 348.79 129.028 C 348.79 129.028 360.46 147.557 361.796 158.084 C 362.22 161.426 359.922 168.446 359.922 168.446 L 260.959 201.664 C 261.754 201.267 149.719 164.593 146.172 166.367 Z"/>
  <path id="path2" style="fill: rgb(216, 216, 216); stroke: rgb(0, 0, 0); opacity: 0.54; stroke-opacity: 0;" d="M 90.958 214.865 L 120.398 225.301 L 158.575 231.2 L 154.477 188.137 L 143.636 150.901 C 140.94 149.138 152.844 125.145 163.524 114.85 C 167.205 111.302 167.893 108.441 169.181 109.283 L 206.048 70.348 C 226.573 94.288 258.311 95.225 278.091 85.327 C 285.694 81.522 293.315 77.167 295.212 70.348 C 296.205 66.779 375.084 146.293 359.051 165.843 L 345.954 234.429 C 353.675 238.966 412.654 223.567 416.013 216.21 C 416.171 216.21 391.947 117.304 390.179 117.304 C 392.838 117.611 376.078 93.893 374.054 93.659 C 374.054 93.659 331.316 70.195 312.188 61.907 C 306.07 59.256 289.769 43.649 289.769 43.649 L 250.351 42.405 L 215.29 43.027 L 202.339 53.923 L 185.47 64.493 L 149.812 82.339 C 149.812 82.339 133.163 89.61 127.078 97.85 C 122.525 104.016 115.038 117.439 115.038 117.439 L 90.958 214.865 Z"/>
  <rect id="initials" x="191.531" y="258.833" width="129.885" height="47.04" style="fill: rgb(216, 216, 216); stroke: rgb(0, 0, 0); fill-opacity: 0; paint-order: fill; stroke-opacity: 0;"/>
  <ellipse id= "logo" style="fill: rgb(216, 216, 216); stroke: rgb(0, 0, 0); stroke-opacity: 0; paint-order: stroke; fill-opacity: 0;" cx="309.13" cy="147.553" rx="32.647" ry="29.839"/>
</svg>