<?xml version="1.0" encoding="utf-8"?>
<svg xmlns="http://www.w3.org/2000/svg" viewBox="0 0 500 500" style="" xmlns:bx="https://boxy-svg.com">
  <defs>
    <bx:export>
      <bx:file format="svg" href="#object-0"/>
    </bx:export>
  </defs>
  <path id="path0" fill="rgb(255,0,0)" stroke="rgb(255,0,0)" stroke-width="0" d="M 204.545 141.817 C 217.035 141.705 232.172 141.524 246.116 142.566 C 260.258 143.624 278.408 147.434 288.812 148.184 C 295.765 148.686 299.442 150.193 304.541 151.68 C 310.013 153.276 316.593 154.899 318.96 157.859 C 320.355 159.603 319.385 159.425 319.085 160.981 C 318.769 162.616 316.973 163.949 314.903 165.412 C 311.559 167.775 308.392 167.774 303.542 169.657 C 299 171.42 296.751 171.665 291.308 172.528 C 284.106 173.67 271.961 172.9 261.472 174.275 C 248.484 175.978 230.168 176.162 215.53 176.523 C 201.946 176.857 187.409 177.737 175.457 177.522 C 164.597 177.325 155.519 176.964 146.12 175.15 C 137.245 173.437 127.069 171.186 121.651 168.409 C 118.191 166.634 117.113 165.226 115.721 163.103 C 114.418 161.115 115.173 163.827 115.472 161.73 C 115.744 159.816 116.206 157.733 116.783 156.923 C 117.043 156.557 119.425 155.904 119.84 155.612 C 120.968 154.82 122.382 153.806 126.02 152.428 C 130.819 150.612 136.952 149.56 144.247 148.184 C 153.161 146.503 165.643 144.374 175.957 143.44 C 185.982 142.532 193.641 141.916 204.545 141.817 Z" style="fill: rgb(166, 209, 48); stroke: rgb(129, 151, 57); stroke-width: 2px; opacity: 0;"/>
  <path  style="fill: rgb(216, 216, 216); stroke: rgb(0, 0, 0); opacity: 0;" d="M 322.217 191.526 C 321.769 190.63 394.08 188.766 396.752 194.111 L 406.231 206.606 L 413.555 223.408 L 414.417 315.609 L 401.491 329.396 L 379.088 334.996 C 378.904 335.273 320.358 335.199 322.217 332.411 L 321.79 314.897 C 321.837 315.213 322.132 315.522 322.643 315.822 Z M 321.79 314.897 C 321.782 314.847 321.781 314.797 321.786 314.747 Z M 382.534 316.47 L 396.753 306.13 C 395.029 304.837 399.337 250.982 397.614 250.982 L 398.044 221.685 L 384.688 208.329 L 360.561 206.606 L 336.435 212.637 L 333.85 251.844 C 333.042 251.575 333.979 317.376 336.434 318.194 L 329.447 317.757 C 345.667 320.676 382.031 321.495 382.534 316.47 Z M 114.982 163.521 L 114.986 163.917 C 114.976 163.786 114.975 163.654 114.982 163.521 Z M 114.986 163.917 C 116.517 183.975 319.762 180.029 320.924 162.229 L 321.355 336.72 L 314.461 385.836 L 292.058 399.623 L 239.926 408.67 L 175.3 407.378 C 175.3 408.085 138.296 397.176 136.187 394.258 C 137.354 397.702 119.684 378.643 117.136 372.911 Z" id="path1"/>
</svg>