<?xml version="1.0" encoding="utf-8"?>
<svg xmlns="http://www.w3.org/2000/svg" viewBox="0 0 500 500">
  <path id="path0" 
        style="fill: rgba(235, 235, 235, 0); stroke: none;"
        d="M 65.389 148.026 C 66.023 152.795 143.136 174.269 142.761 169.971 C 141.527 170.487 147.466 155.517 149.156 154.686 C 156.875 150.891 154.356 391.251 154.031 399.865 L 344.875 398.753 L 342.748 138.185 L 349.171 139.019 L 349.965 162.839 L 420.145 161.183 L 369.349 34.047 L 294.464 4.721 C 294.162 6.591 276.697 9.847 246.762 12.508 C 213.15 10.464 205.657 5.698 203.109 4.855 C 203.109 4.855 127.573 32.266 123.223 29.712 C 120.722 28.244 105.77 58.056 94.264 85.179 C 67.515 148.231 65.106 146.869 65.389 148.026 Z"/>
</svg>
